<svg width="27" height="26" viewBox="0 0 27 26" fill="none" xmlns="http://www.w3.org/2000/svg">
<g clip-path="url(#clip0_1_368)">
<path d="M21.0025 13.05C21.0025 8.604 17.4205 5 13.0025 5C8.58249 5.001 5.00049 8.604 5.00049 13.051C5.00049 17.068 7.92649 20.398 11.7505 21.002V15.377H9.72049V13.051H11.7525V11.276C11.7525 9.259 12.9475 8.145 14.7745 8.145C15.6505 8.145 16.5655 8.302 16.5655 8.302V10.282H15.5565C14.5635 10.282 14.2535 10.903 14.2535 11.54V13.05H16.4715L16.1175 15.376H14.2525V21.001C18.0765 20.397 21.0025 17.067 21.0025 13.05Z" fill="white"/>
</g>
<defs>
<clipPath id="clip0_1_368">
<rect width="16" height="16" fill="white" transform="translate(5.50049 5)"/>
</clipPath>
</defs>
</svg>
