<svg width="26" height="26" viewBox="0 0 26 26" fill="none" xmlns="http://www.w3.org/2000/svg">
<g clip-path="url(#clip0_1_362)">
<path d="M13.0005 5C10.8295 5 10.5565 5.01 9.70349 5.048C8.85049 5.088 8.26949 5.222 7.76049 5.42C7.22658 5.62082 6.74298 5.93583 6.34349 6.343C5.93656 6.7427 5.6216 7.22624 5.42049 7.76C5.22249 8.268 5.08749 8.85 5.04849 9.7C5.01049 10.555 5.00049 10.827 5.00049 13.001C5.00049 15.173 5.01049 15.445 5.04849 16.298C5.08849 17.15 5.22249 17.731 5.42049 18.24C5.62549 18.766 5.89849 19.212 6.34349 19.657C6.78749 20.102 7.23349 20.376 7.75949 20.58C8.26949 20.778 8.84949 20.913 9.70149 20.952C10.5555 20.99 10.8275 21 13.0005 21C15.1735 21 15.4445 20.99 16.2985 20.952C17.1495 20.912 17.7325 20.778 18.2415 20.58C18.7751 20.3791 19.2583 20.0641 19.6575 19.657C20.1025 19.212 20.3755 18.766 20.5805 18.24C20.7775 17.731 20.9125 17.15 20.9525 16.298C20.9905 15.445 21.0005 15.173 21.0005 13C21.0005 10.827 20.9905 10.555 20.9525 9.701C20.9125 8.85 20.7775 8.268 20.5805 7.76C20.3794 7.22623 20.0644 6.74268 19.6575 6.343C19.2581 5.93568 18.7745 5.62065 18.2405 5.42C17.7305 5.222 17.1485 5.087 16.2975 5.048C15.4435 5.01 15.1725 5 12.9985 5H13.0015H13.0005ZM12.2835 6.442H13.0015C15.1375 6.442 15.3905 6.449 16.2335 6.488C17.0135 6.523 17.4375 6.654 17.7195 6.763C18.0925 6.908 18.3595 7.082 18.6395 7.362C18.9195 7.642 19.0925 7.908 19.2375 8.282C19.3475 8.563 19.4775 8.987 19.5125 9.767C19.5515 10.61 19.5595 10.863 19.5595 12.998C19.5595 15.133 19.5515 15.387 19.5125 16.23C19.4775 17.01 19.3465 17.433 19.2375 17.715C19.1092 18.0624 18.9045 18.3764 18.6385 18.634C18.3585 18.914 18.0925 19.087 17.7185 19.232C17.4385 19.342 17.0145 19.472 16.2335 19.508C15.3905 19.546 15.1375 19.555 13.0015 19.555C10.8655 19.555 10.6115 19.546 9.76849 19.508C8.98849 19.472 8.56549 19.342 8.28349 19.232C7.93599 19.1039 7.62161 18.8996 7.36349 18.634C7.09724 18.376 6.89221 18.0617 6.76349 17.714C6.65449 17.433 6.52349 17.009 6.48849 16.229C6.45049 15.386 6.44249 15.133 6.44249 12.996C6.44249 10.86 6.45049 10.608 6.48849 9.765C6.52449 8.985 6.65449 8.561 6.76449 8.279C6.90949 7.906 7.08349 7.639 7.36349 7.359C7.64349 7.079 7.90949 6.906 8.28349 6.761C8.56549 6.651 8.98849 6.521 9.76849 6.485C10.5065 6.451 10.7925 6.441 12.2835 6.44V6.442ZM17.2715 7.77C17.1454 7.77 17.0206 7.79483 16.9041 7.84308C16.7876 7.89132 16.6818 7.96203 16.5927 8.05118C16.5035 8.14032 16.4328 8.24615 16.3846 8.36262C16.3363 8.4791 16.3115 8.60393 16.3115 8.73C16.3115 8.85607 16.3363 8.9809 16.3846 9.09738C16.4328 9.21385 16.5035 9.31968 16.5927 9.40882C16.6818 9.49797 16.7876 9.56868 16.9041 9.61692C17.0206 9.66517 17.1454 9.69 17.2715 9.69C17.5261 9.69 17.7703 9.58886 17.9503 9.40882C18.1303 9.22879 18.2315 8.98461 18.2315 8.73C18.2315 8.47539 18.1303 8.23121 17.9503 8.05118C17.7703 7.87114 17.5261 7.77 17.2715 7.77ZM13.0015 8.892C12.4566 8.8835 11.9154 8.98349 11.4095 9.18614C10.9036 9.3888 10.443 9.69007 10.0546 10.0724C9.66627 10.4548 9.35785 10.9106 9.14733 11.4133C8.93681 11.916 8.82839 12.4555 8.82839 13.0005C8.82839 13.5455 8.93681 14.085 9.14733 14.5877C9.35785 15.0904 9.66627 15.5462 10.0546 15.9286C10.443 16.3109 10.9036 16.6122 11.4095 16.8149C11.9154 17.0175 12.4566 17.1175 13.0015 17.109C14.08 17.0922 15.1087 16.6519 15.8655 15.8833C16.6222 15.1146 17.0464 14.0792 17.0464 13.0005C17.0464 11.9218 16.6222 10.8864 15.8655 10.1177C15.1087 9.34909 14.08 8.90883 13.0015 8.892ZM13.0015 10.333C13.7088 10.333 14.3872 10.614 14.8873 11.1141C15.3875 11.6143 15.6685 12.2927 15.6685 13C15.6685 13.7073 15.3875 14.3857 14.8873 14.8859C14.3872 15.386 13.7088 15.667 13.0015 15.667C12.2942 15.667 11.6158 15.386 11.1156 14.8859C10.6155 14.3857 10.3345 13.7073 10.3345 13C10.3345 12.2927 10.6155 11.6143 11.1156 11.1141C11.6158 10.614 12.2942 10.333 13.0015 10.333Z" fill="white"/>
</g>
<defs>
<clipPath id="clip0_1_362">
<rect width="16.0006" height="16.0003" fill="white" transform="translate(5.00049 5)"/>
</clipPath>
</defs>
</svg>
