<svg width="27" height="26" viewBox="0 0 27 26" fill="none" xmlns="http://www.w3.org/2000/svg">
<g clip-path="url(#clip0_1_371)">
<path d="M10.0265 19.0007C16.0645 19.0007 19.3675 13.9977 19.3675 9.66669C19.3675 9.52669 19.3675 9.38469 19.3615 9.24469C20.0045 8.77918 20.5595 8.20284 21.0005 7.54269C20.3998 7.80754 19.7632 7.9821 19.1115 8.06069C19.798 7.65033 20.3122 7.00466 20.5585 6.24369C19.9135 6.62582 19.2075 6.89407 18.4715 7.03669C17.9767 6.50972 17.3219 6.16061 16.6086 6.04345C15.8953 5.92629 15.1632 6.04761 14.5258 6.38863C13.8884 6.72965 13.3813 7.27132 13.0829 7.92975C12.7846 8.58818 12.7117 9.32663 12.8755 10.0307C11.5702 9.96524 10.2933 9.62616 9.12753 9.03544C7.96176 8.44471 6.93317 7.61554 6.10849 6.60169C5.68983 7.32478 5.56206 8.18009 5.75113 8.99396C5.94021 9.80782 6.43194 10.5192 7.12649 10.9837C6.60603 10.966 6.09701 10.8263 5.64049 10.5757V10.6207C5.64139 11.3782 5.9038 12.1121 6.38336 12.6985C6.86293 13.2848 7.53024 13.6876 8.27249 13.8387C7.99075 13.9163 7.69972 13.955 7.40749 13.9537C7.20147 13.9543 6.99587 13.9352 6.79349 13.8967C7.00327 14.5487 7.41176 15.1189 7.96174 15.5272C8.51171 15.9355 9.17562 16.1615 9.86049 16.1737C8.69704 17.0875 7.25989 17.5831 5.78049 17.5807C5.51981 17.5818 5.25931 17.5668 5.00049 17.5357C6.502 18.493 8.24579 19.0012 10.0265 19.0007Z" fill="white"/>
</g>
<defs>
<clipPath id="clip0_1_371">
<rect width="16" height="16" fill="white" transform="translate(5.50049 5)"/>
</clipPath>
</defs>
</svg>
