<svg width="27" height="26" viewBox="0 0 27 26" fill="none" xmlns="http://www.w3.org/2000/svg">
<g clip-path="url(#clip0_1_365)">
<path d="M14.0515 6.99902H14.1405C14.9625 7.00202 19.1275 7.03202 20.2505 7.33402C20.59 7.42619 20.8993 7.60585 21.1476 7.85503C21.396 8.10422 21.5745 8.41421 21.6655 8.75402C21.7665 9.13402 21.8375 9.63702 21.8855 10.156L21.8955 10.26L21.9175 10.52L21.9255 10.624C21.9905 11.538 21.9985 12.394 21.9995 12.581V12.656C21.9985 12.85 21.9895 13.764 21.9175 14.716L21.9095 14.821L21.9005 14.925C21.8505 15.497 21.7765 16.065 21.6655 16.483C21.5748 16.823 21.3963 17.1331 21.148 17.3823C20.8996 17.6316 20.5901 17.8111 20.2505 17.903C19.0905 18.215 14.6815 18.237 14.0705 18.238H13.9285C13.6195 18.238 12.3415 18.232 11.0015 18.186L10.8315 18.18L10.7445 18.176L10.5735 18.169L10.4025 18.162C9.29249 18.113 8.23549 18.034 7.74849 17.902C7.40898 17.8102 7.09955 17.6308 6.85121 17.3818C6.60287 17.1327 6.42434 16.8228 6.33349 16.483C6.22249 16.066 6.14849 15.497 6.09849 14.925L6.09049 14.82L6.08249 14.716C6.03314 14.0384 6.00579 13.3594 6.00049 12.68L6.00049 12.557C6.00249 12.342 6.01049 11.599 6.06449 10.779L6.07149 10.676L6.07449 10.624L6.08249 10.52L6.10449 10.26L6.11449 10.156C6.16249 9.63702 6.23349 9.13302 6.33449 8.75402C6.42518 8.41407 6.60365 8.10393 6.852 7.85471C7.10035 7.60548 7.40986 7.42592 7.74949 7.33402C8.23649 7.20402 9.29349 7.12402 10.4035 7.07402L10.5735 7.06702L10.7455 7.06102L10.8315 7.05802L11.0025 7.05102C11.9542 7.0204 12.9063 7.0034 13.8585 7.00002H14.0515V6.99902ZM12.4005 10.209V15.027L16.5575 12.619L12.4005 10.209Z" fill="white"/>
</g>
<defs>
<clipPath id="clip0_1_365">
<rect width="16" height="16" fill="white" transform="translate(5.50049 5)"/>
</clipPath>
</defs>
</svg>
