<svg width="16" height="16" viewBox="0 0 16 16" fill="none" xmlns="http://www.w3.org/2000/svg">
<g clip-path="url(#clip0_1_456)">
<path d="M0.000610352 1.5C0.000610352 1.36739 0.0532888 1.24021 0.147057 1.14645C0.240825 1.05268 0.368002 1 0.50061 1H2.00061C2.11214 1.00003 2.22046 1.03735 2.30834 1.10602C2.39622 1.1747 2.45862 1.27078 2.48561 1.379L2.89061 3H14.5006C14.574 3.00007 14.6465 3.0163 14.713 3.04755C14.7794 3.0788 14.8381 3.12429 14.885 3.1808C14.9319 3.23731 14.9657 3.30345 14.9841 3.37452C15.0026 3.44558 15.0051 3.51984 14.9916 3.592L13.4916 11.592C13.4702 11.7066 13.4094 11.8101 13.3197 11.8846C13.23 11.9591 13.1172 11.9999 13.0006 12H4.00061C3.88404 11.9999 3.77118 11.9591 3.68152 11.8846C3.59187 11.8101 3.53106 11.7066 3.50961 11.592L2.01061 3.607L1.61061 2H0.50061C0.368002 2 0.240825 1.94732 0.147057 1.85355C0.0532888 1.75979 0.000610352 1.63261 0.000610352 1.5ZM3.10261 4L4.41561 11H12.5856L13.8986 4H3.10261ZM5.00061 12C4.47018 12 3.96147 12.2107 3.5864 12.5858C3.21132 12.9609 3.00061 13.4696 3.00061 14C3.00061 14.5304 3.21132 15.0391 3.5864 15.4142C3.96147 15.7893 4.47018 16 5.00061 16C5.53104 16 6.03975 15.7893 6.41482 15.4142C6.7899 15.0391 7.00061 14.5304 7.00061 14C7.00061 13.4696 6.7899 12.9609 6.41482 12.5858C6.03975 12.2107 5.53104 12 5.00061 12ZM12.0006 12C11.4702 12 10.9615 12.2107 10.5864 12.5858C10.2113 12.9609 10.0006 13.4696 10.0006 14C10.0006 14.5304 10.2113 15.0391 10.5864 15.4142C10.9615 15.7893 11.4702 16 12.0006 16C12.531 16 13.0398 15.7893 13.4148 15.4142C13.7899 15.0391 14.0006 14.5304 14.0006 14C14.0006 13.4696 13.7899 12.9609 13.4148 12.5858C13.0398 12.2107 12.531 12 12.0006 12ZM5.00061 13C5.26583 13 5.52018 13.1054 5.70772 13.2929C5.89525 13.4804 6.00061 13.7348 6.00061 14C6.00061 14.2652 5.89525 14.5196 5.70772 14.7071C5.52018 14.8946 5.26583 15 5.00061 15C4.73539 15 4.48104 14.8946 4.2935 14.7071C4.10597 14.5196 4.00061 14.2652 4.00061 14C4.00061 13.7348 4.10597 13.4804 4.2935 13.2929C4.48104 13.1054 4.73539 13 5.00061 13ZM12.0006 13C12.2658 13 12.5202 13.1054 12.7077 13.2929C12.8953 13.4804 13.0006 13.7348 13.0006 14C13.0006 14.2652 12.8953 14.5196 12.7077 14.7071C12.5202 14.8946 12.2658 15 12.0006 15C11.7354 15 11.481 14.8946 11.2935 14.7071C11.106 14.5196 11.0006 14.2652 11.0006 14C11.0006 13.7348 11.106 13.4804 11.2935 13.2929C11.481 13.1054 11.7354 13 12.0006 13Z" fill="#23A6F0"/>
</g>
<defs>
<clipPath id="clip0_1_456">
<rect width="16" height="16" fill="white" transform="translate(0.000610352)"/>
</clipPath>
</defs>
</svg>
