<svg width="16" height="15" viewBox="0 0 16 15" fill="none" xmlns="http://www.w3.org/2000/svg">
<path d="M8.00051 2.74805L7.28351 2.01105C5.60051 0.281049 2.51451 0.878049 1.40051 3.05305C0.877505 4.07605 0.759505 5.55305 1.71451 7.43805C2.63451 9.25305 4.54851 11.427 8.00051 13.795C11.4525 11.427 13.3655 9.25305 14.2865 7.43805C15.2415 5.55205 15.1245 4.07605 14.6005 3.05305C13.4865 0.878049 10.4005 0.280049 8.71751 2.01005L8.00051 2.74805ZM8.00051 15C-7.33249 4.86805 3.27951 -3.03995 7.82451 1.14305C7.88451 1.19805 7.94351 1.25505 8.00051 1.31405C8.05693 1.2551 8.11564 1.19839 8.17651 1.14405C12.7205 -3.04195 23.3335 4.86705 8.00051 15Z" fill="#23A6F0"/>
</svg>
