<svg width="20" height="20" viewBox="0 0 20 20" fill="none" xmlns="http://www.w3.org/2000/svg">
<path d="M19.1707 7.41939C19.1131 7.24958 19.007 7.10037 18.8655 6.99018C18.724 6.87999 18.5533 6.81365 18.3746 6.79934L13.1454 6.38383L10.8826 1.37482C10.8105 1.21349 10.6933 1.07646 10.5451 0.980278C10.3969 0.884093 10.224 0.832861 10.0473 0.832764C9.8706 0.832667 9.69766 0.883709 9.54933 0.979732C9.40101 1.07575 9.28364 1.21265 9.2114 1.3739L6.94858 6.38383L1.71943 6.79934C1.54374 6.81326 1.37578 6.8775 1.23564 6.98438C1.0955 7.09125 0.989122 7.23624 0.929227 7.40199C0.869332 7.56774 0.858458 7.74724 0.897905 7.91901C0.937353 8.09078 1.02545 8.24755 1.15166 8.37056L5.01597 12.1376L3.64929 18.0556C3.60779 18.2348 3.62109 18.4222 3.68747 18.5937C3.75384 18.7652 3.87022 18.9128 4.02151 19.0173C4.17279 19.1218 4.352 19.1785 4.53587 19.1799C4.71975 19.1813 4.8998 19.1274 5.05266 19.0252L10.047 15.6956L15.0413 19.0252C15.1976 19.1289 15.3818 19.1823 15.5693 19.1782C15.7568 19.1741 15.9386 19.1126 16.0901 19.0022C16.2416 18.8917 16.3557 18.7374 16.417 18.5602C16.4782 18.3829 16.4838 18.1912 16.4328 18.0107L14.7552 12.1404L18.9157 8.39625C19.1882 8.15043 19.2881 7.76702 19.1707 7.41939Z" fill="#F3CD03"/>
</svg>
